<svg xmlns="http://www.w3.org/2000/svg" width="247" height="46.519" viewBox="0 0 247 46.519">
  <g id="logo-menucka-orange" transform="translate(-0.501 -1)">
    <path id="Path_97" data-name="Path 97" d="M194.109,29.852a4.339,4.339,0,0,0,5.632-2.805,15.192,15.192,0,0,0,.2-3.363,23.508,23.508,0,0,1-4.442,1.27,6.759,6.759,0,0,0-1.4.486,2.131,2.131,0,0,0-1.24,1.515A2.371,2.371,0,0,0,194.109,29.852Zm10.769-11.193c.023,1.33,0,2.662,0,4.28-.077,1.328.074,2.926-.1,4.551a6.972,6.972,0,0,1-5.634,6.229,15.46,15.46,0,0,1-6.092.3c-.175-.035-.357-.063-.54-.108-3.5-.963-4.891-3.055-4.659-6.867a5.122,5.122,0,0,1,3.442-4.744,14.728,14.728,0,0,1,3.5-.929,24.1,24.1,0,0,0,3.189-.545,3.621,3.621,0,0,0,1.335-.631,1.349,1.349,0,0,0-.287-2.353,6.25,6.25,0,0,0-4.359-.188,2.509,2.509,0,0,0-1.086.854,2.392,2.392,0,0,1-1.8,1,2.332,2.332,0,0,1-2.341-1.349,2.425,2.425,0,0,1,.479-2.737,6.927,6.927,0,0,1,3.8-2,15.5,15.5,0,0,1,7.09.32,6.193,6.193,0,0,1,2,.954A4.8,4.8,0,0,1,204.878,18.659Z" fill="#f16429" fill-rule="evenodd"/>
    <path id="Path_98" data-name="Path 98" d="M185.938,30.1a2.745,2.745,0,0,1-5.054,2.108c-.844-1.761-1.845-3.439-2.747-5.165a6.392,6.392,0,0,0-1.008-1.44.958.958,0,0,0-1.162-.291,1.015,1.015,0,0,0-.654,1.029c.012,1.4,0,2.791,0,4.181a5.093,5.093,0,0,1-.113,1.291,2.654,2.654,0,0,1-5.221-.489c-.028-.434.011-.857.011-1.3-.006-6.476-.011-13.627-.019-20.1A2.68,2.68,0,0,1,172.4,7.131a2.628,2.628,0,0,1,2.855,2.335,6.817,6.817,0,0,1,.061,1.116c0,3.158,0,6.985,0,10.142a1.016,1.016,0,0,1,.162.077c.258-.293.531-.572.787-.872q2.7-3.134,5.4-6.27a2.35,2.35,0,0,1,2.58-.826,2.2,2.2,0,0,1,1.624,1.849,2.253,2.253,0,0,1-.642,2.044Q183.5,18.6,181.749,20.48a4.977,4.977,0,0,1-.439.467c-.389.3-.308.584-.078.941,1.4,2.378,2.78,4.756,4.171,7.129A6.129,6.129,0,0,1,185.938,30.1Z" fill="#f16429" fill-rule="evenodd"/>
    <path id="Path_99" data-name="Path 99" d="M168.1,29.014a2.237,2.237,0,0,1-.647,2.449,8.968,8.968,0,0,1-4.318,2.4,11.631,11.631,0,0,1-5.07.061,7.941,7.941,0,0,1-6.106-5.54,14.837,14.837,0,0,1-.038-9.4,8.037,8.037,0,0,1,7.429-5.782,11.465,11.465,0,0,1,5.114.695,7.782,7.782,0,0,1,3.068,2.183,2.5,2.5,0,0,1-.277,3.7,2.459,2.459,0,0,1-3.59-.607,3.685,3.685,0,0,0-3.921-1.521A3.407,3.407,0,0,0,156.9,20.15a10.824,10.824,0,0,0-.507,3.474,10.52,10.52,0,0,0,.4,3.119,4.1,4.1,0,0,0,6.1,2.488,5.207,5.207,0,0,0,1.1-.984,2.434,2.434,0,0,1,2.239-.852A2.24,2.24,0,0,1,168.1,29.014Z" fill="#f16429" fill-rule="evenodd"/>
    <path id="Path_100" data-name="Path 100" d="M164.794,9.512a2.256,2.256,0,0,1-2.219,2.465,31.9,31.9,0,0,1-4.171-.01,2.261,2.261,0,0,1-2.184-2.483,2.357,2.357,0,0,1,2.4-2.225c.647-.022,1.292,0,1.951,0,.584,0,1.171-.018,1.757,0A2.347,2.347,0,0,1,164.794,9.512Z" fill="#f16429" fill-rule="evenodd"/>
    <path id="Path_101" data-name="Path 101" d="M150.047,15.366a6.918,6.918,0,0,1,.154,1.387c0,2.821,0,5.635,0,8.464a14.269,14.269,0,0,1-.529,4.132,5.441,5.441,0,0,1-2.947,3.519,11.426,11.426,0,0,1-11.35-.467,5.324,5.324,0,0,1-2.423-3.6,12.614,12.614,0,0,1-.368-3.035c0-1.951.009-3.906,0-5.854-.013-1.307.024-2.608-.047-3.911a2.579,2.579,0,0,1,2.293-2.781,2.694,2.694,0,0,1,2.923,2.165,7.344,7.344,0,0,1,.166,1.649c-.016,2.942-.012,5.893-.005,8.826,0,.353-.007.692.022,1.029a3.048,3.048,0,0,0,2.834,3.03,4.339,4.339,0,0,0,1.663-.068,3.086,3.086,0,0,0,2.488-3.273c.024-1.765.006-3.534.006-5.631-.049-1.439.041-3.2-.066-4.965a2.617,2.617,0,0,1,5.188-.617Z" fill="#f16429" fill-rule="evenodd"/>
    <path id="Path_102" data-name="Path 102" d="M131.381,21.9c.01,3.094.016,6.191,0,9.29a2.6,2.6,0,0,1-3.439,2.63,2.45,2.45,0,0,1-1.759-2.063,6.315,6.315,0,0,1-.073-1.02c0-3.169,0-6.339,0-9.493,0-.222,0-.437,0-.652a3.015,3.015,0,0,0-2.346-2.979,3.836,3.836,0,0,0-4,1.052,3.171,3.171,0,0,0-.637,2c0,1.738,0,3.473,0,5.2H119.1V30.7a4.972,4.972,0,0,1-.1,1.116,2.608,2.608,0,0,1-2.811,2.171,2.65,2.65,0,0,1-2.434-2.681c-.011-2.085-.011-4.154.011-6.23a42.993,42.993,0,0,1,.129-5.2,9.568,9.568,0,0,1,.626-2.416,5.1,5.1,0,0,1,2.118-2.514,11.021,11.021,0,0,1,11.327-.381,5.845,5.845,0,0,1,3.052,4.1A14,14,0,0,1,131.381,21.9Z" fill="#f16429" fill-rule="evenodd"/>
    <path id="Path_103" data-name="Path 103" d="M112.451,21.663a2.97,2.97,0,0,1-3.127,3.469c-3.157-.1-6.32-.039-9.487-.056-.111,0-.235.018-.43.028a4.607,4.607,0,0,0,.262,1.993c.939,2.844,3.678,3.015,5.524,2.324a6.475,6.475,0,0,0,1.271-.759,2.319,2.319,0,1,1,2.481,3.912,10.855,10.855,0,0,1-8.127,1.358,7.9,7.9,0,0,1-6.211-5.774,15.05,15.05,0,0,1-.052-8.964,8.16,8.16,0,0,1,7.833-6.014,13.154,13.154,0,0,1,3.325.26,7.95,7.95,0,0,1,6.108,5.514A17.323,17.323,0,0,1,112.451,21.663Zm-5.781.01c.372,0,.362-.242.333-.5-.3-2.2-1.407-3.657-4-3.562a3.628,3.628,0,0,0-3.556,4.064Z" fill="#f16429" fill-rule="evenodd"/>
    <path id="Path_104" data-name="Path 104" d="M92.46,19.242a14.156,14.156,0,0,1,.223,2.494c-.018,3.035-.008,6.078-.008,9.122a4.48,4.48,0,0,1-.1,1.183,2.589,2.589,0,0,1-2.913,2.018,2.533,2.533,0,0,1-2.251-2.618q0-2.661,0-5.3h.041c0-1.683.007-3.349,0-5.022a3.55,3.55,0,0,0-5.225-3.319,2.9,2.9,0,0,0-1.848,2.757c-.024,1.206-.008,2.414-.013,3.624,0,2.17,0,2.408,0,4.581a6.328,6.328,0,0,1-.1,1.192,2.631,2.631,0,0,1-5.222-.56c.112-3.353.024-4.756.053-8.1,0-.249,0-.5-.02-.748a3.175,3.175,0,0,0-3.02-3.084A3.306,3.306,0,0,0,68.1,20.909c-.024,3.226-.012,6.454-.008,9.66a6.976,6.976,0,0,1-.094,1.3,2.65,2.65,0,0,1-5.271-.5c.016-3.221.021-6.435.036-9.663a12.375,12.375,0,0,1,.51-3.58,5.639,5.639,0,0,1,2.784-3.438,11.828,11.828,0,0,1,9.251-1,6.418,6.418,0,0,1,2.143,1.077.54.54,0,0,0,.72.04,10.832,10.832,0,0,1,10.393-.607A6.16,6.16,0,0,1,92.46,19.242Z" fill="#f16429" fill-rule="evenodd"/>
    <path id="Path_105" data-name="Path 105" d="M246.933,28.949a2.981,2.981,0,0,1,.523,2.163,2.729,2.729,0,0,1-5.145.7c-.9-1.7-1.809-3.385-2.72-5.079a6.072,6.072,0,0,0-.816-1.214c-.339-.376-.705-.7-1.269-.475a1.085,1.085,0,0,0-.671,1.178c.029,1.5.01,3,.01,4.5a2.627,2.627,0,0,1-5.244.315,5.8,5.8,0,0,1-.016-.735c0-6.449,0-13.552,0-20.006a5.8,5.8,0,0,1,.055-1,2.582,2.582,0,0,1,2.661-2.17,2.609,2.609,0,0,1,2.505,2.258,5.85,5.85,0,0,1,.032.914c0,2.908,0,6.471,0,9.371v.887c.054.024.115.04.177.065q3.034-3.5,6.061-6.995a2.493,2.493,0,0,1,1.335-.9,2.331,2.331,0,0,1,2.549,1.015,2.266,2.266,0,0,1-.279,2.8c-.852.959-1.75,1.88-2.617,2.818-.441.472-.857.967-1.326,1.405-.337.317-.294.569-.076.926C244.1,24.1,245.511,26.527,246.933,28.949Z" fill="#f16429" fill-rule="evenodd"/>
    <path id="Path_106" data-name="Path 106" d="M227.005,22.477c2.6,1.122,3.286,3.117,2.969,5.57-.373,2.9-2.206,4.713-5.334,5.4a18.738,18.738,0,0,1-3.993.363,13.446,13.446,0,0,1-3.814-.543,6.134,6.134,0,0,1-4.042-3.575,2.641,2.641,0,0,1,1.262-3.554,2.546,2.546,0,0,1,3.5,1.391,3.394,3.394,0,0,0,3.229,2.245,5.684,5.684,0,0,0,2.366-.167,3.048,3.048,0,0,0,1.053-.537,1.341,1.341,0,0,0-.067-2.243,5.9,5.9,0,0,0-2.383-.912,30.324,30.324,0,0,1-4.167-1.07,15.088,15.088,0,0,1-1.608-.642,5.229,5.229,0,0,1-2.5-7.47,5.943,5.943,0,0,1,3.622-3.046,12.317,12.317,0,0,1,8.349.215,6.808,6.808,0,0,1,2.766,2.057,2.446,2.446,0,0,1-3.633,3.272,1.72,1.72,0,0,1-.3-.355c-1.021-1.657-2.591-1.881-4.325-1.672a2.991,2.991,0,0,0-1.141.331,1.3,1.3,0,0,0-.078,2.342,7.7,7.7,0,0,0,1.86.744c1.431.435,2.931.589,4.349,1.083C225.64,21.94,226.334,22.188,227.005,22.477Z" fill="#f16429" fill-rule="evenodd"/>
    <path id="Path_107" data-name="Path 107" d="M211.339,31.112a2.659,2.659,0,1,1-2.648-2.593A2.649,2.649,0,0,1,211.339,31.112Z" fill="#f16429" fill-rule="evenodd"/>
    <g id="Group_33" data-name="Group 33">
      <g id="XMLID_18_">
        <path id="Path_108" data-name="Path 108" d="M18.817,28.961C15.7,30.846,14,31.92,10.879,33.807c-.134.228-.054.368.241.418,3.2-1.729,4.989-2.647,8.185-4.379.236.057.3.18.254.458-3.1,1.9-4.759,3.036-7.853,4.937a.313.313,0,0,0,.259.439c3.193-1.722,4.979-2.63,8.177-4.352.229.041.305.172.224.394-3.083,1.916-4.758,3.019-7.841,4.931q-.162.411.278.48c3.183-1.742,4.962-2.669,8.146-4.409.217.069.29.2.214.4L11.1,39.633c-1.686.977-3.31-.537-4.376.076,0,0-3.05,1.758-3.784,2.183-.232-.327-.449-.666-.654-1.018-.183-.315-.351-.639-.5-.961v0l3.8-2.19c1.058-.615.56-2.774,2.251-3.751,3.64-1.71,7.126-3.693,10.769-5.4C18.743,28.655,18.883,28.749,18.817,28.961Z" fill="#fff"/>
        <path id="Path_109" data-name="Path 109" d="M10.88,33.807C14,31.92,15.7,30.846,18.818,28.961c.066-.212-.074-.306-.221-.4-3.642,1.71-7.129,3.693-10.769,5.4-1.691.977-1.193,3.136-2.251,3.751l-3.8,2.19A13.289,13.289,0,0,1,13.787,20.937s.005,0,.005,0a13.266,13.266,0,0,0,11.5,6.632.091.091,0,0,0,.007.014,13.286,13.286,0,0,1-22.361,14.3c.733-.425,3.784-2.183,3.784-2.183,1.067-.613,2.69.9,4.376-.076l10.067-6.513c.075-.192,0-.327-.214-.4-3.184,1.74-4.963,2.667-8.146,4.409-.293-.047-.386-.206-.278-.48,3.083-1.912,4.758-3.015,7.841-4.931.081-.222,0-.353-.224-.394-3.2,1.722-4.984,2.63-8.177,4.352a.314.314,0,0,1-.259-.439c3.094-1.9,4.757-3.034,7.853-4.937.049-.278-.019-.4-.254-.458-3.2,1.731-4.986,2.65-8.185,4.379C10.826,34.175,10.746,34.034,10.88,33.807Z" fill="#f14129"/>
      </g>
    </g>
    <g id="Group_34" data-name="Group 34">
      <g id="XMLID_14_">
        <path id="Path_110" data-name="Path 110" d="M43.437,22.719a13.29,13.29,0,0,1,5.368,17.192l-1.8-.984L42.762,36.34,31.623,29.9a3.164,3.164,0,0,0-1.5-.527.945.945,0,0,0-.939.607c-.288.753.236,2.025,1.2,2.889a55.563,55.563,0,0,0,11.993,8.195,1.91,1.91,0,0,0,.853.2A3.293,3.293,0,0,0,44.4,40.99a2.335,2.335,0,0,1,.706-.188.553.553,0,0,1,.353.131l1.991,1.227A13.284,13.284,0,0,1,25.3,40.884a13.28,13.28,0,0,0,0-13.3.061.061,0,0,0-.007-.01h0a13.277,13.277,0,0,1,18.143-4.857Z" fill="#f16429"/>
        <path id="Path_111" data-name="Path 111" d="M47.008,38.927l1.8.984q-.231.486-.5.961a12.45,12.45,0,0,1-.85,1.287l-1.991-1.227a.553.553,0,0,0-.353-.131,2.365,2.365,0,0,0-.706.188,3.293,3.293,0,0,1-1.176.278,1.91,1.91,0,0,1-.853-.2A55.6,55.6,0,0,1,30.378,32.87c-.963-.863-1.487-2.136-1.2-2.889a.943.943,0,0,1,.939-.607,3.168,3.168,0,0,1,1.5.527L42.76,36.339Z" fill="#fff"/>
      </g>
    </g>
    <g id="Group_35" data-name="Group 35">
      <g id="XMLID_13_">
        <path id="Path_112" data-name="Path 112" d="M38.58,14.288A13.232,13.232,0,0,1,36.8,20.937a13.27,13.27,0,0,0-11.509,6.639h0a13.271,13.271,0,0,1-11.5-6.636,0,0,0,0,0,0,0A13.292,13.292,0,0,1,23.774,1.085l.292,6.667c-.116.709-.679,1.152-1.392,1.707a5.486,5.486,0,0,0-2.587,4.85c0,5.106,2.251,8.815,5.35,8.815,2.842,0,5.063-3.812,5.063-8.678a6.022,6.022,0,0,0-2.975-5.354c-.716-.521-1.121-.833-1.069-1.261l.363-6.745A13.289,13.289,0,0,1,38.58,14.288Z" fill="#f18729"/>
        <path id="Path_113" data-name="Path 113" d="M27.523,9.092A6.024,6.024,0,0,1,30.5,14.446c0,4.867-2.221,8.678-5.063,8.678-3.1,0-5.35-3.709-5.35-8.815a5.486,5.486,0,0,1,2.587-4.85c.713-.555,1.275-1,1.392-1.707l-.292-6.667A13.2,13.2,0,0,1,25.292,1a14.227,14.227,0,0,1,1.525.085L26.454,7.83C26.4,8.259,26.807,8.571,27.523,9.092Z" fill="#fff"/>
      </g>
    </g>
  </g>
</svg>
