<svg xmlns="http://www.w3.org/2000/svg" width="39" height="36.591" viewBox="0 0 39 36.591">
  <g id="menucka_all_white_xs" transform="translate(-79 -32)">
    <g id="logo-menucka-xs" transform="translate(79 31.7)">
      <g id="Group_21" data-name="Group 21">
        <g id="XMLID_18_">
          <path id="Path_74" data-name="Path 74" d="M14.408,22.292c-2.45,1.482-3.792,2.328-6.243,3.813-.106.179-.043.289.189.328,2.516-1.359,3.924-2.082,6.438-3.443.186.044.239.141.2.359-2.435,1.5-3.743,2.389-6.176,3.883a.247.247,0,0,0,.2.346c2.511-1.354,3.916-2.068,6.432-3.422.18.031.239.135.176.309-2.425,1.507-3.742,2.374-6.167,3.879-.085.216-.012.341.218.378,2.5-1.371,3.9-2.1,6.407-3.469.171.055.228.161.169.313L8.337,30.688c-1.326.769-2.6-.422-3.442.06,0,0-2.4,1.383-2.976,1.717q-.273-.385-.514-.8c-.144-.248-.276-.5-.4-.756v0L4,29.184c.832-.483.44-2.183,1.771-2.95,2.863-1.345,5.605-2.905,8.47-4.25C14.349,22.052,14.459,22.126,14.408,22.292Z" fill="none"/>
          <path id="Path_75" data-name="Path 75" d="M8.165,26.1c2.452-1.484,3.793-2.33,6.243-3.813.052-.166-.059-.24-.174-.31-2.865,1.345-5.607,2.905-8.47,4.25C4.434,27,4.825,28.7,3.993,29.183L1.005,30.906a10.453,10.453,0,0,1,9.446-14.923s0,0,0,0A10.434,10.434,0,0,0,19.5,21.2l.006.011A10.45,10.45,0,0,1,1.916,32.464c.577-.334,2.976-1.717,2.976-1.717.839-.481,2.116.709,3.442-.06l7.918-5.122c.059-.151,0-.258-.169-.313-2.5,1.369-3.9,2.1-6.407,3.469-.23-.037-.3-.162-.218-.378,2.425-1.5,3.742-2.372,6.167-3.879q.094-.261-.176-.309c-2.516,1.354-3.92,2.067-6.432,3.422a.247.247,0,0,1-.2-.346c2.434-1.494,3.742-2.387,6.176-3.883.039-.219-.014-.315-.2-.359-2.514,1.361-3.922,2.084-6.438,3.443C8.122,26.394,8.059,26.283,8.165,26.1Z" fill="#fff"/>
        </g>
      </g>
      <g id="Group_22" data-name="Group 22">
        <g id="XMLID_14_">
          <path id="Path_76" data-name="Path 76" d="M33.772,17.383A10.453,10.453,0,0,1,37.994,30.9l-1.413-.774L33.241,28.1,24.48,23.034a2.5,2.5,0,0,0-1.184-.415.743.743,0,0,0-.739.479,2.426,2.426,0,0,0,.944,2.271,43.717,43.717,0,0,0,9.432,6.446,1.512,1.512,0,0,0,.672.159,2.576,2.576,0,0,0,.925-.22,1.845,1.845,0,0,1,.555-.147.428.428,0,0,1,.277.1l1.566.965a10.45,10.45,0,0,1-17.428-1,10.445,10.445,0,0,0,0-10.46s0,0-.006-.007h0a10.448,10.448,0,0,1,14.272-3.823Z" fill="#fff"/>
          <path id="Path_77" data-name="Path 77" d="M36.581,30.131l1.413.774q-.181.382-.4.756a10.022,10.022,0,0,1-.669,1.013l-1.566-.965a.437.437,0,0,0-.277-.1,1.852,1.852,0,0,0-.555.147,2.571,2.571,0,0,1-.925.22,1.515,1.515,0,0,1-.672-.159A43.717,43.717,0,0,1,23.5,25.368a2.425,2.425,0,0,1-.944-2.271.743.743,0,0,1,.739-.479,2.5,2.5,0,0,1,1.184.415L33.242,28.1Z" fill="none"/>
        </g>
      </g>
      <g id="Group_23" data-name="Group 23">
        <g id="XMLID_13_">
          <path id="Path_78" data-name="Path 78" d="M29.952,10.751a10.424,10.424,0,0,1-1.4,5.23A10.44,10.44,0,0,0,19.5,21.2h0a10.439,10.439,0,0,1-9.044-5.22,0,0,0,0,0,0,0A10.453,10.453,0,0,1,18.306.368l.23,5.243c-.092.558-.535.906-1.1,1.343A4.314,4.314,0,0,0,15.4,10.768c0,4.017,1.771,6.934,4.208,6.934,2.235,0,3.982-3,3.982-6.826a4.738,4.738,0,0,0-2.34-4.211c-.564-.41-.883-.655-.841-.992L20.7.368A10.451,10.451,0,0,1,29.952,10.751Z" fill="#fff"/>
          <path id="Path_79" data-name="Path 79" d="M21.256,6.665a4.738,4.738,0,0,1,2.34,4.211c0,3.828-1.747,6.826-3.982,6.826-2.437,0-4.208-2.917-4.208-6.934a4.314,4.314,0,0,1,2.035-3.814c.561-.437,1-.785,1.1-1.343L18.307.368A10.018,10.018,0,0,1,19.5.3a11.1,11.1,0,0,1,1.2.067l-.286,5.3C20.373,6.01,20.691,6.255,21.256,6.665Z" fill="none"/>
        </g>
      </g>
    </g>
  </g>
</svg>
