<svg id="google-assistant-text" xmlns="http://www.w3.org/2000/svg" width="767" height="172" viewBox="0 0 767 172">
  <g id="Group_36" data-name="Group 36">
    <path id="Path_128" data-name="Path 128" d="M242.4,43.1h13.4V71.6h30V43.1h13.4v71.3H285.8V84.3h-30v30.1H242.4Z" fill="#fff"/>
    <path id="Path_129" data-name="Path 129" d="M322,112.5a24.363,24.363,0,0,1-9.5-9.6,29.1,29.1,0,0,1,0-27.3,26.3,26.3,0,0,1,9.4-9.9A24.469,24.469,0,0,1,335.2,62a25.311,25.311,0,0,1,13.5,3.4,21.459,21.459,0,0,1,8.6,9.3,28.2,28.2,0,0,1,2.9,13,31.456,31.456,0,0,1-.3,4.4H321.7c.7,4.1,2.3,7.1,4.8,9.2a14.031,14.031,0,0,0,9.2,3.1,14.427,14.427,0,0,0,7.7-1.9,14.133,14.133,0,0,0,5.1-5.2l10.6,5.2c-5.2,9-13,13.5-23.6,13.5a26.892,26.892,0,0,1-13.5-3.5Zm25.7-29.7a9.614,9.614,0,0,0-1.7-4.7,11.618,11.618,0,0,0-4.3-3.9,13.157,13.157,0,0,0-6.4-1.5,12.289,12.289,0,0,0-8,2.7,15.43,15.43,0,0,0-4.8,7.4Z" fill="#fff"/>
  </g>
  <path id="Path_130" data-name="Path 130" d="M381.2,112,359.8,63.6h14.8l13.1,31.6h.8l12.7-31.6h14.5l-31.4,72.3h-14Z" fill="#fff"/>
  <path id="Path_131" data-name="Path 131" d="M456.2,111.2a37.183,37.183,0,0,1-13.7-13.3,36.4,36.4,0,0,1-5.1-19.1,36.473,36.473,0,0,1,18.8-32.4,37.943,37.943,0,0,1,18.9-4.8,39.723,39.723,0,0,1,15.3,2.9,34.511,34.511,0,0,1,11.9,8.3L493,61.9a25.217,25.217,0,0,0-7.9-5.7A24.6,24.6,0,0,0,475,54.3a24.947,24.947,0,0,0-12.1,3,21.438,21.438,0,0,0-8.7,8.7A24.844,24.844,0,0,0,451,78.8a24.905,24.905,0,0,0,3.3,12.8,22.974,22.974,0,0,0,8.8,8.7,24.947,24.947,0,0,0,12.1,3c6.6,0,12.1-2,16.3-5.9a16.892,16.892,0,0,0,3.5-4.6,24.6,24.6,0,0,0,2.2-6.1H474.8V75.3h35a24.813,24.813,0,0,1,.7,6.3,39.548,39.548,0,0,1-2.1,13.1,31.333,31.333,0,0,1-18.1,18.6,40.588,40.588,0,0,1-15.1,2.7,38.319,38.319,0,0,1-19-4.8Z" fill="#fff"/>
  <g id="Group_37" data-name="Group 37">
    <path id="Path_132" data-name="Path 132" d="M528.8,112.5a25.546,25.546,0,0,1-9.6-9.7A27.684,27.684,0,0,1,515.8,89a27.57,27.57,0,0,1,3.4-13.7,24.867,24.867,0,0,1,9.6-9.7,27.219,27.219,0,0,1,14-3.5,27.856,27.856,0,0,1,13.9,3.5,25.546,25.546,0,0,1,9.6,9.7A27.571,27.571,0,0,1,569.7,89a27.684,27.684,0,0,1-3.4,13.8,25.546,25.546,0,0,1-9.6,9.7,27.1,27.1,0,0,1-13.9,3.5A28.237,28.237,0,0,1,528.8,112.5Zm21-10.3a13.428,13.428,0,0,0,5.1-5.2,17.581,17.581,0,0,0,0-15.9,13.428,13.428,0,0,0-5.1-5.2,14.036,14.036,0,0,0-7-1.8,14.31,14.31,0,0,0-7,1.8,13.428,13.428,0,0,0-5.1,5.2,17.373,17.373,0,0,0,0,15.8,13.428,13.428,0,0,0,5.1,5.2,13.77,13.77,0,0,0,7,1.8,12.777,12.777,0,0,0,7-1.7Z" fill="#fff"/>
    <path id="Path_133" data-name="Path 133" d="M588.1,112.5a25.546,25.546,0,0,1-9.6-9.7A27.684,27.684,0,0,1,575.1,89a27.57,27.57,0,0,1,3.4-13.7,24.867,24.867,0,0,1,9.6-9.7,27.219,27.219,0,0,1,14-3.5A27.856,27.856,0,0,1,616,65.6a25.546,25.546,0,0,1,9.6,9.7A27.571,27.571,0,0,1,629,89a27.684,27.684,0,0,1-3.4,13.8,25.546,25.546,0,0,1-9.6,9.7,27.1,27.1,0,0,1-13.9,3.5A27.967,27.967,0,0,1,588.1,112.5Zm21-10.3a13.428,13.428,0,0,0,5.1-5.2,17.581,17.581,0,0,0,0-15.9,13.428,13.428,0,0,0-5.1-5.2,14.036,14.036,0,0,0-7-1.8,14.31,14.31,0,0,0-7,1.8,13.428,13.428,0,0,0-5.1,5.2,17.373,17.373,0,0,0,0,15.8,13.428,13.428,0,0,0,5.1,5.2,13.77,13.77,0,0,0,7,1.8,13.215,13.215,0,0,0,7-1.7Z" fill="#fff"/>
    <path id="Path_134" data-name="Path 134" d="M644.4,133.2a22.3,22.3,0,0,1-8.6-10.4l12.3-5a13.752,13.752,0,0,0,4.9,6,14.256,14.256,0,0,0,17.3-1.6q3.6-3.75,3.6-10.8v-4h-.8a15.257,15.257,0,0,1-6.3,5.2,20.8,20.8,0,0,1-8.9,1.8,22.866,22.866,0,0,1-11.7-3.2,24.124,24.124,0,0,1-8.7-9.2,27.631,27.631,0,0,1-3.3-13.8,28.167,28.167,0,0,1,3.3-13.8,24.86,24.86,0,0,1,8.7-9.2A21.935,21.935,0,0,1,657.9,62a21.12,21.12,0,0,1,8.9,1.8,15.257,15.257,0,0,1,6.3,5.2h.8V63.6h12.6v47.3a29.65,29.65,0,0,1-3.2,14.1,21.277,21.277,0,0,1-9.1,9.2,27.475,27.475,0,0,1-13.7,3.2c-6.5.1-11.8-1.3-16.1-4.2ZM670,98.7q3.9-3.9,3.9-10.5c0-4.6-1.3-8.1-3.8-10.6a12.975,12.975,0,0,0-9.4-3.7,13.3,13.3,0,0,0-9.5,3.8c-2.6,2.5-3.9,6-3.9,10.6,0,4.5,1.3,8,3.9,10.6a13.277,13.277,0,0,0,18.8-.2Z" fill="#fff"/>
  </g>
  <path id="Path_135" data-name="Path 135" d="M695.7,43.1h13v71.3h-13Z" fill="#fff"/>
  <path id="Path_136" data-name="Path 136" d="M728.8,112.5a24.364,24.364,0,0,1-9.5-9.6,29.1,29.1,0,0,1,0-27.3,26.3,26.3,0,0,1,9.4-9.9A24.469,24.469,0,0,1,742,62a25.311,25.311,0,0,1,13.5,3.4,21.458,21.458,0,0,1,8.6,9.3,28.2,28.2,0,0,1,2.9,13,31.451,31.451,0,0,1-.3,4.4H728.5c.7,4.1,2.3,7.1,4.8,9.2a14.031,14.031,0,0,0,9.2,3.1,14.427,14.427,0,0,0,7.7-1.9,13.407,13.407,0,0,0,5.1-5.2l10.6,5.2c-5.2,9-13,13.5-23.6,13.5a26.892,26.892,0,0,1-13.5-3.5Zm25.7-29.7a9.614,9.614,0,0,0-1.7-4.7,11.618,11.618,0,0,0-4.3-3.9,13.157,13.157,0,0,0-6.4-1.5,12.289,12.289,0,0,0-8,2.7,15.43,15.43,0,0,0-4.8,7.4Z" fill="#fff"/>
  <path id="Path_137" data-name="Path 137" d="M176.4,60.2a12.9,12.9,0,1,0-12.9-12.9,12.931,12.931,0,0,0,12.9,12.9" fill="#fff"/>
  <path id="Path_138" data-name="Path 138" d="M137.7,103.2a25.8,25.8,0,1,0-25.8-25.8A25.8,25.8,0,0,0,137.7,103.2Z" fill="#fff"/>
  <path id="Path_139" data-name="Path 139" d="M137.7,172a30.15,30.15,0,1,0-30.2-30.2A30.152,30.152,0,0,0,137.7,172Z" fill="#fff"/>
  <path id="Path_140" data-name="Path 140" d="M51.6,103.2A51.6,51.6,0,1,0,0,51.6a51.6,51.6,0,0,0,51.6,51.6" fill="#fff"/>
</svg>
