<svg xmlns="http://www.w3.org/2000/svg" width="92" height="21" viewBox="0 0 92 21">
  <defs>
    <style>
      .cls-1 {
        fill: #fff;
      }
    </style>
  </defs>
  <title>icon</title>
  <g id="icon">
    <g>
      <path class="cls-1" d="M74.1,3.8a5.52,5.52,0,0,0-5.7,5.7,5.7,5.7,0,0,0,11.4,0A5.52,5.52,0,0,0,74.1,3.8Zm0,9.8A3.93,3.93,0,0,1,70,9.5a4.1,4.1,0,0,1,8.2,0A3.93,3.93,0,0,1,74.1,13.6Z"/>
      <path class="cls-1" d="M37.6,3.8a5.52,5.52,0,0,0-5.7,5.7,5.7,5.7,0,1,0,11.4,0A5.52,5.52,0,0,0,37.6,3.8Zm0,9.8a3.93,3.93,0,0,1-4.1-4.1,4.1,4.1,0,0,1,8.2,0A3.93,3.93,0,0,1,37.6,13.6Z"/>
      <polygon class="cls-1" points="57.2 5.6 61.2 5.6 61.2 15 62.8 15 62.8 5.6 66.8 5.6 66.8 4 57.2 4 57.2 5.6"/>
      <path class="cls-1" d="M8,.2H.2V12.8h5v8H8A4.64,4.64,0,0,0,12.8,16V5A4.64,4.64,0,0,0,8,.2ZM11.2,16A3,3,0,0,1,8,19.2H6.8V9.8H8a4.82,4.82,0,0,0,3.2-1.16ZM8,8.2H5.2v3H1.8V1.8H8A3,3,0,0,1,11.2,5,3,3,0,0,1,8,8.2Z"/>
      <path class="cls-1" d="M87.45,8.72l-.8,0c-2.25-.13-2.25-1-2.25-1.58,0-1.48,1.53-1.7,2.45-1.7s2.65.22,2.65,1.7h1.6c0-1.59-1.12-3.3-4.25-3.3-2.46,0-4,1.3-4,3.3,0,1.35.65,3,3.75,3.18l.8,0c2.25.13,2.25,1,2.25,1.58,0,1.48-1.54,1.7-2.45,1.7s-2.65-.22-2.65-1.7H82.9c0,1.6,1.12,3.3,4.25,3.3,2.46,0,4-1.29,4-3.3C91.2,10.55,90.55,8.9,87.45,8.72Z"/>
      <path class="cls-1" d="M25.2,4h-5V15h1.6V12h3.4a4,4,0,1,0,0-8Zm0,6.4H21.8V5.6h3.4A2.35,2.35,0,0,1,27.6,8,2.35,2.35,0,0,1,25.2,10.4Z"/>
      <path class="cls-1" d="M55.2,7.8A3.67,3.67,0,0,0,51.4,4H46.2V15h1.6V11.6h3.51L53.74,15h2L53,11.26A3.65,3.65,0,0,0,55.2,7.8ZM51.4,10H47.8V5.6h3.6a2.08,2.08,0,0,1,2.2,2.2A2.08,2.08,0,0,1,51.4,10Z"/>
    </g>
  </g>
</svg>
