<svg xmlns="http://www.w3.org/2000/svg" viewBox="0 0 474.54 150"><defs><style>.cls-1{fill:#fff;}</style></defs><title>Asset 4</title><g id="Layer_2" data-name="Layer 2"><g id="Layer_1-2" data-name="Layer 1"><polygon class="cls-1" points="299.54 75 249.54 0 249.54 150 299.54 150 349.54 150 349.54 0 299.54 0 299.54 75"/><polygon class="cls-1" points="0 0 0 150 50 150 50 100 100 100 100 0 50 0 0 0"/><polygon class="cls-1" points="124.54 0 124.54 50 124.54 100 124.54 150 224.54 150 149.54 75 224.54 0 124.54 0"/><polygon class="cls-1" points="474.54 0 374.54 0 374.54 50 374.54 100 374.54 150 474.54 150 399.54 75 474.54 0"/></g></g></svg>